<?xml version="1.0" encoding="UTF-8"?>
<svg id="Layer_1" data-name="Layer 1" xmlns="http://www.w3.org/2000/svg" viewBox="0 0 88.18 125.02">
  <defs>
    <style>
      .cls-1 {
        fill: #c03b00;
        fill-rule: evenodd;
        stroke-width: 0px;
      }

      .cls-2 {
        fill: none;
        stroke: #fff;
        stroke-miterlimit: 10;
        stroke-width: 5px;
      }
    </style>
  </defs>
  <path class="cls-1" d="m29.71,29.46C45.39,13.5,64.16,4.11,85.94,1.13c1.7,22.44,2.18,44.37-2.09,64.29-4.92,22.97-16.21,42.51-37.53,53.8-10.9,5.78-21.59,6.35-32.14,1.6-7.98-7.04-12.31-15.94-13.05-26.67C-.53,70.21,13.41,46.05,29.71,29.46h0Z"/>
  <path class="cls-2" d="m29.71,29.46C45.39,13.5,64.16,4.11,85.94,1.13c1.7,22.44,2.18,44.37-2.09,64.29-4.92,22.97-16.21,42.51-37.53,53.8-10.9,5.78-21.59,6.35-32.14,1.6-7.98-7.04-12.31-15.94-13.05-26.67C-.53,70.21,13.41,46.05,29.71,29.46h0ZM85.94,1.13C47.57,20.82,8.07,71.65,13.85,118.44m61.5-62.76c-7.6,22.29-17.82,42.94-38.61,56.96m17.42-35.8c-4.08,8.61-9.5,16.59-16.7,23.75m27.43-65.86c-18.61,27.93-35.7,56.54-50.7,86.1"/>
</svg>