<?xml version="1.0" encoding="UTF-8"?>
<svg id="Layer_2" data-name="Layer 2" xmlns="http://www.w3.org/2000/svg" viewBox="0 0 69.93 77.28">
  <defs>
    <style>
      .cls-1 {
        stroke-width: 2px;
      }

      .cls-1, .cls-2, .cls-3, .cls-4, .cls-5, .cls-6 {
        stroke-miterlimit: 10;
      }

      .cls-1, .cls-3, .cls-5 {
        fill: none;
        stroke: #c03b00;
        stroke-linecap: round;
      }

      .cls-7, .cls-2 {
        fill: #fff;
      }

      .cls-2 {
        stroke: #6b2100;
      }

      .cls-3 {
        stroke-width: 1.5px;
      }

      .cls-8, .cls-4, .cls-6 {
        fill: #6b2100;
      }

      .cls-4 {
        stroke-width: .5px;
      }

      .cls-4, .cls-6 {
        stroke: #fff;
      }

      .cls-5 {
        stroke-width: 3px;
      }

      .cls-6 {
        stroke-width: .25px;
      }

      .cls-9 {
        fill: #c03b00;
      }
    </style>
  </defs>
  <line class="cls-1" x1="7.88" y1="23.61" x2="15.64" y2="23.61"/>
  <line class="cls-1" x1="5.93" y1="28.46" x2="18.97" y2="28.46"/>
  <line class="cls-1" x1="5.1" y1="33.3" x2="19.28" y2="33.3"/>
  <line class="cls-1" x1="6.15" y1="38.14" x2="19.2" y2="38.14"/>
  <line class="cls-3" x1="7.67" y1="42.99" x2="12.68" y2="42.99"/>
  <g>
    <line class="cls-1" x1="54.75" y1="23.77" x2="62.45" y2="23.77"/>
    <line class="cls-1" x1="58.6" y1="28.61" x2="64.1" y2="28.61"/>
    <line class="cls-1" x1="58.6" y1="33.46" x2="64.81" y2="33.46"/>
    <line class="cls-1" x1="58.91" y1="38.3" x2="64.81" y2="38.3"/>
    <line class="cls-1" x1="58.78" y1="43.15" x2="62.58" y2="43.15"/>
  </g>
  <path class="cls-5" d="m60.43,56.68c4.99-5.84,8-13.43,8-21.71C68.43,16.48,53.45,1.5,34.96,1.5S1.5,16.48,1.5,34.97c0,8.29,3.01,15.87,8,21.71h50.93Z"/>
  <g id="mug">
    <g>
      <path id="mug-2" data-name="mug" class="cls-2" d="m56.37,32.34c.09-2.13-2.51-3.12-5.17-2.97-5.92,0-2.58.31-3.07-2.59h.01s-24.57-.45-24.56,0c.17,4.91.14,21.4.06,25.77,0,0-.2,6.19,4.76,6.19.04,0,14.58,0,14.62,0,.3-.04,3.83,0,4.28-2.6.29-1.65.06-3.75.02-4.52,0-.17.12-.3.29-.3,2.13-.32,8.06,1.16,8.75-2.15.07-1.83,0-16.82,0-16.82Zm-2.24,15.29c-.04.96-1.13.91-1.13.91l-5.56.41v-16.72s1.3.1,3.35,0c2.04-.09,2.22.52,2.22.52,0,0,1.17,13.9,1.13,14.86Z"/>
      <path class="cls-8" d="m25.35,27.56h20.43v24.79c0,2.47-2,4.47-4.47,4.47h-11.49c-2.47,0-4.47-2-4.47-4.47v-24.79h0Z"/>
    </g>
    <g id="details">
      <g id="almonds">
        <path class="cls-4" d="m25.44,58.58c-2.08,1.32-5.09.48-7.5-1.82-1.4-1.34-2.29-3.14-2.62-5.05-.61-3.57.24-6.67,1.04-7.41.75-.7,3.62-.28,6.51,1.63,2.2,1.46,3.86,3.66,4.43,6.24.6,2.74-.03,5.26-1.85,6.42Z"/>
        <path class="cls-4" d="m25.88,58.89c1.07.68,2.56.42,3.88-.54,1.43-1.03,2.3-2.7,2.29-4.46,0-1.92-.65-3.7-.65-3.7,0,0-1.66.17-3.4.96s-3.02,2.3-3.32,4.14c-.26,1.55.14,2.94,1.19,3.61Z"/>
      </g>
      <path class="cls-7" d="m35.57,37.68c2.18.05,2.06,3.48-.12,3.36-2.18-.05-2.06-3.48.12-3.36Z"/>
      <path class="cls-7" d="m33.53,46.35c-1.67-1.19.24-3.79,1.87-2.55,1.67,1.19-.24,3.79-1.87,2.55Z"/>
      <path class="cls-7" d="m29.24,43.79c-2.28-1.63.32-5.18,2.56-3.48,2.28,1.63-.32,5.18-2.56,3.48Z"/>
    </g>
    <path id="foam" class="cls-2" d="m50.79,24.39c0-2.31-1.52-4.3-3.74-5.26-.44-2.87-3.24-5.09-6.64-5.09-1,0-1.94.19-2.79.53-.8-1.24-2.26-2.07-3.93-2.07-2.05,0-3.78,1.25-4.36,2.96-.55-.21-1.16-.33-1.8-.33-2.45,0-4.45,1.68-4.59,3.8-1.64,1.17-2.69,2.95-2.69,4.95,0,3.52,3.26,6.38,7.28,6.38.7,0,1.37-.09,2.01-.25.3-.08.6,0,.85.18,1.18.91,2.73,1.46,4.43,1.46s3.17-.53,4.34-1.41c.14-.11.33,0,.3.18-.13.76-.19,1.58-.19,2.4,0,3.06.9,4.95,2.52,4.95s3.34-1.89,3.34-4.95c0-.73-.1-1.46-.27-2.15-.06-.24.09-.46.34-.49,3.17-.46,5.6-2.88,5.6-5.79Z"/>
  </g>
  <g>
    <g>
      <path class="cls-6" d="m10.37,60.21c0-.2.2-.24.36-.26.39-.06,1.46-.18,1.54-.2h.66c2.91,0,5.77.45,5.77,3.95s-1.15,6.57-5.14,6.57c-.32,0-.6,0-.93-.03-.18-.01-1.18-.15-1.45-.18-.32-.05-.44-.24-.45-.56l-.36-8.56v-.74Zm3.66,7.3h.06c.6,0,1.16-1.85,1.21-2.26.03-.14.09-.68.11-.77v-.33c0-1.21-.44-1.36-1.6-1.36v.47l.23,4.25Z"/>
      <path class="cls-6" d="m19.94,60.21c.68-.45,2.56-.35,4.49-.2,1.76.14,3.33.81,3.33,2.74,0,1.48-.75,2.37-1.96,3.09-.02.02-.05.05-.05.05,0,.03.03.09.05.11.23.33,1.36,1.98,1.58,2.34.27.38.56.86.56,1.33,0,.75-1.03.59-1.54.59s-1.73.15-2.07-.45c-.38-.8-.8-1.75-1.33-2.47l-.05.21-.17,1.99c-.03.33-.23.62-.54.71-.45.01-.83.05-1.27.05h-.05c-.42,0-1.34,0-1.34-.62l.33-9.45Zm3.26,2.28s-.05.14-.05.18v1.64s.06.05.09.05h.21c.59,0,1.21-.41,1.21-1.03,0-.69-.83-.84-1.37-.84h-.09Z"/>
      <path class="cls-6" d="m30.96,69.14c0,.62-.42,1.22-1.09,1.22-.53,0-1.03-.45-1.03-1,0-1.31,2.11-1.75,2.11-.23Z"/>
      <path class="cls-6" d="m33.01,64.06c0-.53.08-2.96.09-3.47.02-.06.03-.35.05-.41.03-.2.3-.2.45-.23.44-.06.84-.05,1.28-.05h.74c.92.14,1.33,1.03,1.66,1.79.21.45,1.13,2.8,1.31,3.27v-3.32c0-.44.03-1.64.66-1.75.06,0,.32-.02.38-.02h.03c.32,0,1.63-.02,1.63.47v7.6c0,.09-.08,1.28-.09,1.7-.01.26-.07.87-.44.9h-1.22s-.48-.08-.63-.1c-.26-.03-.56-.11-.68-.35l-2.07-4.3c.02.39.02,2.25,0,2.64v.17c-.01.83-.03,1.73-1.04,1.73h-.3c-1.27-.11-1.7-.23-1.76-1.54-.02-.26-.05-1.33-.05-1.52,0-.09-.02-1.27-.02-1.69s.02-1.49.02-1.55Z"/>
      <path class="cls-6" d="m42.55,60.21c.05-.17.45-.17.66-.17h.2c.57,0,2.01.02,2.19.69v.48c0,1.12-.05,2.22-.05,3.32v.71c-.02.42-.06,1.84.53,1.91.71.09.69-1.06.72-1.33l.39-4.66c.06-.71.42-1.03,1.1-1.03h.27c.09.01.65.12.8.14.87.18.89,1.1.89,1.84,0,1.64-.18,3.24-.5,4.85-.42,2.19-1.55,3.21-3.81,3.27-3.95.11-3.81-4.99-3.39-10.04Z"/>
      <path class="cls-6" d="m51.84,63.21c-.39,0-.68-.48-.68-.83v-1.99c0-.18.15-.42.35-.44.86-.08,6.32.09,7.25.14.59.12.8.45.8,1.06,0,.94-.11,1.9-1.21,2.01-.18.02-1.06.08-1.24.08-.06.03-.06.06-.06.09,0,.01.02.05.02.05,0,.87.06,2.91.03,3.68,0,.2-.01.39-.01.56-.06,2.17.2,2.65-1.58,2.65-.68,0-1.61-.1-1.64-.98l-.23-6.06h-1.79Z"/>
    </g>
    <g>
      <path class="cls-9" d="m24.72,76.6c.07,0,.15,0,.23,0,.06,0,.12,0,.18,0,.17,0,.31,0,.42.03.07.03.12.06.14.11s.04.1.03.16c0,.06-.03.11-.08.16s-.13.09-.26.12c-.13.03-.29.05-.47.05s-.34,0-.48-.01c-.13,0-.22-.03-.29-.06s-.11-.07-.13-.13c0,0,0,0,0,0,0,0,0-.01,0-.01-.05-.1-.07-.25-.08-.44s-.01-.4-.01-.63c0-.02,0-.04,0-.06,0-.18,0-.37,0-.56,0-.32,0-.62,0-.89,0-.42.02-.72.09-.91.04-.09.09-.15.16-.19s.13-.06.2-.07c.04,0,.08,0,.11,0,.02,0,.04,0,.06,0,.14-.01.3-.02.48-.02s.35,0,.49.03c.13.03.21.07.26.12s.07.1.07.16c0,.06,0,.12-.03.17s-.08.09-.16.12c-.08.03-.18.04-.3.05s-.23,0-.33,0h0c-.1,0-.18,0-.26,0,0,.06,0,.12,0,.18,0,.03,0,.06,0,.09,0,.18,0,.38,0,.6.08,0,.16,0,.25,0,.03,0,.06,0,.08,0h0c.1,0,.18,0,.25.01s.13.03.17.07c.04.04.07.09.08.15s.01.12,0,.17c-.02.1-.14.16-.34.19-.11.02-.24.03-.38.03-.04,0-.08,0-.11,0v.19c0,.38,0,.71-.01.98Z"/>
      <path class="cls-9" d="m27.14,77.28s-.09,0-.13,0c-.18-.03-.33-.1-.45-.21s-.21-.23-.26-.36c-.04-.11-.06-.21-.06-.3,0-.02,0-.07,0-.13s.04-.13.09-.19c.05-.05.11-.07.18-.07,0,0,.03,0,.07,0s.09.03.14.07c.06.06.09.15.11.24.04.15.09.27.16.36.05.07.12.1.19.1.08,0,.15-.03.21-.1.05-.05.08-.13.08-.22,0-.13-.06-.28-.19-.47-.1-.15-.21-.3-.33-.46l-.03-.05c-.13-.16-.23-.31-.33-.47-.13-.21-.19-.43-.19-.66,0-.13.02-.28.07-.44s.13-.3.26-.43c.18-.17.41-.26.67-.26.08,0,.15,0,.22.03.14.03.25.09.34.17s.16.17.21.27c.07.14.1.27.1.39,0,.05,0,.09-.02.14-.05.15-.12.22-.22.22-.07,0-.13-.05-.17-.15-.02-.05-.04-.1-.05-.17-.02-.09-.05-.17-.09-.25-.08-.13-.18-.19-.3-.19-.06,0-.11.02-.16.06s-.09.1-.12.18c-.01.05-.02.1-.02.16,0,.05,0,.12.02.21.03.17.18.39.46.65.09.09.18.19.27.29s.17.22.23.34c.1.2.15.42.15.65,0,.22-.06.41-.17.59-.12.17-.29.29-.49.37-.15.06-.3.09-.45.09Z"/>
      <path class="cls-9" d="m30.26,73.88c0,.07,0,.15,0,.24,0,.05,0,.11,0,.17-.02.48-.02,1,0,1.55,0,.13.01.24.02.35.03.34.02.59-.01.76-.03.11-.08.18-.15.22s-.15.04-.24.03c-.09,0-.17-.05-.26-.14s-.14-.27-.18-.54c-.03-.29-.05-.64-.04-1.05s.02-.78.04-1.11c0-.18.02-.33.04-.45h-.07c-.12,0-.23,0-.31-.02s-.15-.04-.19-.09c-.05-.05-.07-.11-.08-.19s.01-.14.05-.19c.04-.05.11-.08.2-.1s.22-.03.39-.04c.18-.01.37-.02.58-.03s.39,0,.54.03c.14.03.24.07.29.12s.08.11.08.17c0,.11-.05.19-.17.24-.11.04-.28.06-.51.07Z"/>
      <path class="cls-9" d="m32.13,77.1s-.05.05-.08.06c-.07.03-.15.04-.24.03-.09,0-.18-.05-.26-.14s-.14-.27-.18-.54c-.03-.29-.05-.64-.04-1.05s.02-.78.05-1.11c.02-.31.04-.53.07-.68s.08-.25.16-.3c.08-.05.17-.07.28-.05s.19.07.25.14l.02.02s.08-.05.12-.08c.14-.08.31-.11.5-.09.19.03.38.12.57.3s.33.43.42.76c.09.35.11.74.07,1.16s-.13.78-.28,1.08c-.1.18-.22.32-.34.41s-.26.15-.39.18-.25.03-.35.02c-.15-.02-.26-.06-.33-.13Zm.09-3.07s0,.06,0,.08c0,.05,0,.11,0,.17-.02.48-.02,1,0,1.55,0,.13.01.24.02.35,0,.09.01.17.01.24h0c.08,0,.16,0,.25-.01s.16-.06.23-.14c.09-.13.15-.31.19-.56s.05-.49.05-.74c0-.24-.03-.45-.06-.62s-.1-.29-.17-.36c-.08-.06-.18-.08-.28-.06-.08.02-.15.04-.21.08Z"/>
      <path class="cls-9" d="m34.79,77.21s-.06,0-.09-.01c-.12-.05-.19-.14-.22-.28v-.06c0-.11.04-.2.12-.26.06-.04.13-.06.22-.06.04,0,.08,0,.11.02.1.03.17.11.19.22,0,.03.01.06.01.09,0,.03,0,.06-.01.11s-.03.09-.08.14-.1.08-.16.1c-.03,0-.06.01-.09.01Z"/>
      <path class="cls-9" d="m37.2,73.98c-.12.09-.22.14-.29.14-.04,0-.08-.02-.12-.05s-.06-.07-.07-.11c-.03-.08-.01-.15.05-.23.07-.08.16-.15.28-.24.06-.04.11-.08.17-.12s.12-.06.17-.06h.04c.06-.01.14-.01.22,0,.12.03.23.08.31.16.06.07.1.16.11.28s0,.28-.01.47c0,.04,0,.08,0,.12-.02.25-.03.53-.04.84s-.02.6-.02.86c0,.09,0,.18,0,.25,0,.18,0,.33-.01.45s-.03.22-.06.28c-.04.09-.11.14-.18.16s-.16.02-.23-.02c-.08-.02-.14-.09-.19-.19s-.09-.29-.1-.56c-.02-.47-.02-1,0-1.6,0-.18,0-.35,0-.5,0-.08,0-.15,0-.22v-.15Z"/>
      <path class="cls-9" d="m40.15,75.37c-.08.1-.19.18-.31.23-.14.05-.29.05-.44,0s-.28-.13-.39-.24c-.1-.12-.17-.26-.2-.42s-.03-.34,0-.53c.03-.19.08-.37.16-.55s.2-.31.35-.41c.16-.1.34-.15.54-.15s.39.05.56.16c.34.21.53.64.58,1.29.02.34,0,.7-.08,1.08s-.19.69-.35.93c-.17.22-.37.36-.6.4s-.42.03-.6-.05c-.16-.07-.28-.17-.35-.29s-.1-.23-.08-.33c.02-.1.06-.17.13-.21s.13-.05.19-.03c.06.03.1.1.14.19.03.06.06.13.1.19.04.05.08.09.13.11s.1.02.15,0,.1-.1.15-.22c.07-.19.12-.46.17-.78.02-.13.03-.25.04-.37Zm.02-.41v-.14c0-.26-.02-.47-.05-.61s-.08-.24-.15-.29c-.07-.06-.14-.08-.22-.06s-.14.08-.2.19c-.05.12-.09.27-.1.44s0,.33.05.46c.05.12.12.2.21.23s.17.03.25,0c.05-.03.09-.07.13-.12.03-.03.05-.07.07-.1Z"/>
      <path class="cls-9" d="m43.22,77.19s-.1,0-.14-.03c-.08-.02-.14-.09-.19-.19-.05-.11-.09-.29-.1-.56-.01-.17-.01-.36-.01-.57v-.28c-.27,0-.53.01-.75.01-.12,0-.22,0-.3-.02-.08-.01-.14-.04-.18-.09h0c-.06-.04-.08-.1-.08-.19,0-.12.06-.33.18-.65.18-.52.35-.9.5-1.14.11-.16.22-.24.32-.24.04,0,.07,0,.1.02.09.04.14.13.14.26s-.06.33-.18.6c-.11.28-.23.55-.35.82.2-.01.42-.02.64-.02.01-.22.02-.42.04-.59.02-.29.05-.51.08-.65.04-.14.09-.24.17-.28.06-.04.13-.06.2-.06.02,0,.06,0,.12.01s.12.05.18.12c.05.06.07.15.07.26v.07c0,.1,0,.27-.02.53-.02.25-.03.53-.04.84-.02.45-.03.82-.03,1.11v.1c0,.14,0,.26-.01.37,0,.11-.03.2-.06.27-.06.11-.15.17-.28.17Z"/>
      <path class="cls-9" d="m45.47,77.19c-.19,0-.37-.05-.53-.14-.14-.08-.27-.2-.37-.36-.19-.33-.28-.76-.28-1.29,0-.3.03-.61.1-.91.06-.26.14-.49.25-.67.2-.31.48-.47.85-.47h.04c.15,0,.3.03.45.1.32.14.53.5.65,1.07.05.25.08.51.08.78,0,.63-.13,1.13-.39,1.49-.22.27-.5.41-.85.41Zm-.07-.7c.05,0,.11-.02.16-.06.12-.09.21-.32.26-.7.02-.17.03-.34.03-.51v-.04c0-.38-.06-.67-.14-.88-.08-.18-.18-.27-.31-.27s-.24.1-.31.3c-.09.28-.13.62-.13,1.03,0,.33.03.61.1.82.08.21.18.31.31.32h.03Z"/>
    </g>
  </g>
</svg>